<mxfile host="app.diagrams.net" agent="Mozilla/5.0 (Windows NT 10.0; Win64; x64) AppleWebKit/537.36 (KHTML, like Gecko) Chrome/136.0.0.0 Safari/537.36" version="27.0.3">
  <diagram name="Page-1" id="57GcYAYfSzlFS6ePgJZm">
    <mxGraphModel dx="175" dy="463" grid="1" gridSize="10" guides="1" tooltips="1" connect="1" arrows="1" fold="1" page="1" pageScale="1" pageWidth="850" pageHeight="1100" math="0" shadow="0">
      <root>
        <mxCell id="0" />
        <mxCell id="1" parent="0" />
        <mxCell id="lnLW_ViYdU20lxV3p-AQ-5" value="" style="whiteSpace=wrap;html=1;aspect=fixed;" parent="1" vertex="1">
          <mxGeometry x="940" y="20" width="680" height="680" as="geometry" />
        </mxCell>
        <mxCell id="pXj6sC53VGuUhhz7tEEk-1" value="Admin" style="shape=umlActor;verticalLabelPosition=bottom;verticalAlign=top;html=1;" parent="1" vertex="1">
          <mxGeometry x="1650" y="50" width="30" height="60" as="geometry" />
        </mxCell>
        <mxCell id="pXj6sC53VGuUhhz7tEEk-5" value="Doctor" style="shape=umlActor;verticalLabelPosition=bottom;verticalAlign=top;html=1;" parent="1" vertex="1">
          <mxGeometry x="1650" y="190" width="30" height="60" as="geometry" />
        </mxCell>
        <mxCell id="pXj6sC53VGuUhhz7tEEk-6" value="Patient" style="shape=umlActor;verticalLabelPosition=bottom;verticalAlign=top;html=1;" parent="1" vertex="1">
          <mxGeometry x="870" y="240" width="30" height="60" as="geometry" />
        </mxCell>
        <mxCell id="Ng3mfkcI_R2xY0YKPm50-1" value="U1: Upload Basic Information" style="ellipse;whiteSpace=wrap;html=1;" parent="1" vertex="1">
          <mxGeometry x="1050" y="90" width="140" height="70" as="geometry" />
        </mxCell>
        <mxCell id="Ng3mfkcI_R2xY0YKPm50-2" value="U4: View Real-time Vital Signs" style="ellipse;whiteSpace=wrap;html=1;" parent="1" vertex="1">
          <mxGeometry x="1205" y="320" width="140" height="70" as="geometry" />
        </mxCell>
        <mxCell id="Ng3mfkcI_R2xY0YKPm50-3" value="U2: View Daily Variation Diagram" style="ellipse;whiteSpace=wrap;html=1;" parent="1" vertex="1">
          <mxGeometry x="1110" y="170" width="140" height="70" as="geometry" />
        </mxCell>
        <mxCell id="Ng3mfkcI_R2xY0YKPm50-4" value="U5: Log in&amp;nbsp;" style="ellipse;whiteSpace=wrap;html=1;" parent="1" vertex="1">
          <mxGeometry x="1135" y="400" width="140" height="70" as="geometry" />
        </mxCell>
        <mxCell id="Ng3mfkcI_R2xY0YKPm50-5" value="U3: Change Password&amp;nbsp;" style="ellipse;whiteSpace=wrap;html=1;" parent="1" vertex="1">
          <mxGeometry x="1160" y="240" width="140" height="70" as="geometry" />
        </mxCell>
        <mxCell id="Ng3mfkcI_R2xY0YKPm50-6" value="U6: Forget Password&amp;nbsp;" style="ellipse;whiteSpace=wrap;html=1;" parent="1" vertex="1">
          <mxGeometry x="1135" y="480" width="140" height="70" as="geometry" />
        </mxCell>
        <mxCell id="Ng3mfkcI_R2xY0YKPm50-9" value="" style="endArrow=none;html=1;rounded=0;exitX=1;exitY=0.3333333333333333;exitDx=0;exitDy=0;exitPerimeter=0;entryX=0;entryY=0.5;entryDx=0;entryDy=0;" parent="1" source="pXj6sC53VGuUhhz7tEEk-6" target="Ng3mfkcI_R2xY0YKPm50-1" edge="1">
          <mxGeometry width="50" height="50" relative="1" as="geometry">
            <mxPoint x="1000" y="375" as="sourcePoint" />
            <mxPoint x="1140" y="170" as="targetPoint" />
          </mxGeometry>
        </mxCell>
        <mxCell id="Ng3mfkcI_R2xY0YKPm50-10" value="" style="endArrow=none;html=1;rounded=0;exitX=1;exitY=0.3333333333333333;exitDx=0;exitDy=0;exitPerimeter=0;entryX=0;entryY=0.5;entryDx=0;entryDy=0;" parent="1" source="pXj6sC53VGuUhhz7tEEk-6" target="Ng3mfkcI_R2xY0YKPm50-3" edge="1">
          <mxGeometry width="50" height="50" relative="1" as="geometry">
            <mxPoint x="990" y="270" as="sourcePoint" />
            <mxPoint x="1150" y="205" as="targetPoint" />
          </mxGeometry>
        </mxCell>
        <mxCell id="Ng3mfkcI_R2xY0YKPm50-11" value="" style="endArrow=none;html=1;rounded=0;exitX=1;exitY=0.3333333333333333;exitDx=0;exitDy=0;exitPerimeter=0;entryX=0;entryY=0.5;entryDx=0;entryDy=0;" parent="1" source="pXj6sC53VGuUhhz7tEEk-6" target="Ng3mfkcI_R2xY0YKPm50-5" edge="1">
          <mxGeometry width="50" height="50" relative="1" as="geometry">
            <mxPoint x="1000" y="280" as="sourcePoint" />
            <mxPoint x="1160" y="215" as="targetPoint" />
          </mxGeometry>
        </mxCell>
        <mxCell id="Ng3mfkcI_R2xY0YKPm50-12" value="" style="endArrow=none;html=1;rounded=0;exitX=1;exitY=0.3333333333333333;exitDx=0;exitDy=0;exitPerimeter=0;entryX=0;entryY=0.5;entryDx=0;entryDy=0;" parent="1" source="pXj6sC53VGuUhhz7tEEk-6" target="Ng3mfkcI_R2xY0YKPm50-2" edge="1">
          <mxGeometry width="50" height="50" relative="1" as="geometry">
            <mxPoint x="990" y="270" as="sourcePoint" />
            <mxPoint x="1150" y="415" as="targetPoint" />
          </mxGeometry>
        </mxCell>
        <mxCell id="Ng3mfkcI_R2xY0YKPm50-13" value="" style="endArrow=none;html=1;rounded=0;exitX=1;exitY=0.3333333333333333;exitDx=0;exitDy=0;exitPerimeter=0;entryX=0;entryY=0.5;entryDx=0;entryDy=0;" parent="1" source="pXj6sC53VGuUhhz7tEEk-6" target="Ng3mfkcI_R2xY0YKPm50-4" edge="1">
          <mxGeometry width="50" height="50" relative="1" as="geometry">
            <mxPoint x="990" y="270" as="sourcePoint" />
            <mxPoint x="1150" y="525" as="targetPoint" />
          </mxGeometry>
        </mxCell>
        <mxCell id="Ng3mfkcI_R2xY0YKPm50-14" value="" style="endArrow=none;html=1;rounded=0;exitX=1;exitY=0.3333333333333333;exitDx=0;exitDy=0;exitPerimeter=0;entryX=0;entryY=0.5;entryDx=0;entryDy=0;" parent="1" source="pXj6sC53VGuUhhz7tEEk-6" target="Ng3mfkcI_R2xY0YKPm50-6" edge="1">
          <mxGeometry width="50" height="50" relative="1" as="geometry">
            <mxPoint x="990" y="270" as="sourcePoint" />
            <mxPoint x="1150" y="635" as="targetPoint" />
          </mxGeometry>
        </mxCell>
        <mxCell id="Ng3mfkcI_R2xY0YKPm50-15" value="" style="endArrow=none;html=1;rounded=0;exitX=1;exitY=0.5;exitDx=0;exitDy=0;entryX=0;entryY=0.3333333333333333;entryDx=0;entryDy=0;entryPerimeter=0;" parent="1" source="Ng3mfkcI_R2xY0YKPm50-5" target="pXj6sC53VGuUhhz7tEEk-5" edge="1">
          <mxGeometry width="50" height="50" relative="1" as="geometry">
            <mxPoint x="1350" y="395" as="sourcePoint" />
            <mxPoint x="1510" y="330" as="targetPoint" />
          </mxGeometry>
        </mxCell>
        <mxCell id="Ng3mfkcI_R2xY0YKPm50-16" value="" style="endArrow=none;html=1;rounded=0;entryX=0;entryY=0.3333333333333333;entryDx=0;entryDy=0;entryPerimeter=0;exitX=1;exitY=0.5;exitDx=0;exitDy=0;" parent="1" source="Ng3mfkcI_R2xY0YKPm50-4" target="pXj6sC53VGuUhhz7tEEk-5" edge="1">
          <mxGeometry width="50" height="50" relative="1" as="geometry">
            <mxPoint x="1310" y="570" as="sourcePoint" />
            <mxPoint x="1600" y="270" as="targetPoint" />
          </mxGeometry>
        </mxCell>
        <mxCell id="Ng3mfkcI_R2xY0YKPm50-17" value="" style="endArrow=none;html=1;rounded=0;exitX=1;exitY=0.5;exitDx=0;exitDy=0;entryX=0;entryY=0.3333333333333333;entryDx=0;entryDy=0;entryPerimeter=0;" parent="1" source="Ng3mfkcI_R2xY0YKPm50-6" target="pXj6sC53VGuUhhz7tEEk-5" edge="1">
          <mxGeometry width="50" height="50" relative="1" as="geometry">
            <mxPoint x="1300" y="425" as="sourcePoint" />
            <mxPoint x="1610" y="280" as="targetPoint" />
          </mxGeometry>
        </mxCell>
        <mxCell id="Ng3mfkcI_R2xY0YKPm50-18" value="U7: Receive Alert SMS&amp;nbsp;" style="ellipse;whiteSpace=wrap;html=1;" parent="1" vertex="1">
          <mxGeometry x="1170" y="560" width="140" height="70" as="geometry" />
        </mxCell>
        <mxCell id="Ng3mfkcI_R2xY0YKPm50-19" value="" style="endArrow=none;html=1;rounded=0;exitX=1;exitY=0.5;exitDx=0;exitDy=0;entryX=0;entryY=0.3333333333333333;entryDx=0;entryDy=0;entryPerimeter=0;" parent="1" source="Ng3mfkcI_R2xY0YKPm50-18" target="pXj6sC53VGuUhhz7tEEk-5" edge="1">
          <mxGeometry width="50" height="50" relative="1" as="geometry">
            <mxPoint x="1290" y="745" as="sourcePoint" />
            <mxPoint x="1600" y="270" as="targetPoint" />
          </mxGeometry>
        </mxCell>
        <mxCell id="Ng3mfkcI_R2xY0YKPm50-21" value="" style="endArrow=none;html=1;rounded=0;exitX=1;exitY=0.5;exitDx=0;exitDy=0;entryX=0;entryY=0.3333333333333333;entryDx=0;entryDy=0;entryPerimeter=0;" parent="1" source="Ng3mfkcI_R2xY0YKPm50-5" target="pXj6sC53VGuUhhz7tEEk-1" edge="1">
          <mxGeometry width="50" height="50" relative="1" as="geometry">
            <mxPoint x="1290" y="835" as="sourcePoint" />
            <mxPoint x="1600" y="270" as="targetPoint" />
          </mxGeometry>
        </mxCell>
        <mxCell id="Ng3mfkcI_R2xY0YKPm50-22" value="" style="endArrow=none;html=1;rounded=0;exitX=1;exitY=0.5;exitDx=0;exitDy=0;entryX=0;entryY=0.3333333333333333;entryDx=0;entryDy=0;entryPerimeter=0;" parent="1" source="Ng3mfkcI_R2xY0YKPm50-4" target="pXj6sC53VGuUhhz7tEEk-1" edge="1">
          <mxGeometry width="50" height="50" relative="1" as="geometry">
            <mxPoint x="1290" y="415" as="sourcePoint" />
            <mxPoint x="1600" y="530" as="targetPoint" />
          </mxGeometry>
        </mxCell>
        <mxCell id="Ng3mfkcI_R2xY0YKPm50-23" value="" style="endArrow=none;html=1;rounded=0;exitX=1;exitY=0.5;exitDx=0;exitDy=0;entryX=0;entryY=0.3333333333333333;entryDx=0;entryDy=0;entryPerimeter=0;" parent="1" source="Ng3mfkcI_R2xY0YKPm50-6" target="pXj6sC53VGuUhhz7tEEk-1" edge="1">
          <mxGeometry width="50" height="50" relative="1" as="geometry">
            <mxPoint x="1290" y="635" as="sourcePoint" />
            <mxPoint x="1600" y="530" as="targetPoint" />
          </mxGeometry>
        </mxCell>
        <mxCell id="Ng3mfkcI_R2xY0YKPm50-24" value="U8: View Patient&#39;s Real-time Vital SIgns&lt;span style=&quot;background-color: transparent; color: light-dark(rgb(0, 0, 0), rgb(255, 255, 255));&quot;&gt;&amp;nbsp;&lt;/span&gt;" style="ellipse;whiteSpace=wrap;html=1;" parent="1" vertex="1">
          <mxGeometry x="1280" y="610" width="140" height="70" as="geometry" />
        </mxCell>
        <mxCell id="Ng3mfkcI_R2xY0YKPm50-25" value="U9: View Patient&#39;s Daily Variation Diagram&amp;nbsp;" style="ellipse;whiteSpace=wrap;html=1;" parent="1" vertex="1">
          <mxGeometry x="1430" y="600" width="140" height="70" as="geometry" />
        </mxCell>
        <mxCell id="Ng3mfkcI_R2xY0YKPm50-27" value="" style="endArrow=none;html=1;rounded=0;entryX=0;entryY=0.3333333333333333;entryDx=0;entryDy=0;entryPerimeter=0;exitX=1;exitY=0.5;exitDx=0;exitDy=0;" parent="1" source="Ng3mfkcI_R2xY0YKPm50-25" target="pXj6sC53VGuUhhz7tEEk-5" edge="1">
          <mxGeometry width="50" height="50" relative="1" as="geometry">
            <mxPoint x="1590" y="647.5" as="sourcePoint" />
            <mxPoint x="1670" y="222.5" as="targetPoint" />
          </mxGeometry>
        </mxCell>
        <mxCell id="Ng3mfkcI_R2xY0YKPm50-28" value="U10: Assign Doctors to Patients" style="ellipse;whiteSpace=wrap;html=1;" parent="1" vertex="1">
          <mxGeometry x="1340" y="30" width="140" height="70" as="geometry" />
        </mxCell>
        <mxCell id="Ng3mfkcI_R2xY0YKPm50-29" value="U11: Add/Remove Doctors and Patients" style="ellipse;whiteSpace=wrap;html=1;" parent="1" vertex="1">
          <mxGeometry x="1290" y="120" width="140" height="70" as="geometry" />
        </mxCell>
        <mxCell id="Ng3mfkcI_R2xY0YKPm50-30" value="" style="endArrow=none;html=1;rounded=0;exitX=1;exitY=0.5;exitDx=0;exitDy=0;entryX=0;entryY=0.3333333333333333;entryDx=0;entryDy=0;entryPerimeter=0;" parent="1" source="Ng3mfkcI_R2xY0YKPm50-28" target="pXj6sC53VGuUhhz7tEEk-1" edge="1">
          <mxGeometry width="50" height="50" relative="1" as="geometry">
            <mxPoint x="1280" y="545" as="sourcePoint" />
            <mxPoint x="1660" y="570" as="targetPoint" />
          </mxGeometry>
        </mxCell>
        <mxCell id="Ng3mfkcI_R2xY0YKPm50-31" value="" style="endArrow=none;html=1;rounded=0;exitX=1;exitY=0.5;exitDx=0;exitDy=0;entryX=0;entryY=0.3333333333333333;entryDx=0;entryDy=0;entryPerimeter=0;" parent="1" source="Ng3mfkcI_R2xY0YKPm50-29" target="pXj6sC53VGuUhhz7tEEk-1" edge="1">
          <mxGeometry width="50" height="50" relative="1" as="geometry">
            <mxPoint x="1820" y="750" as="sourcePoint" />
            <mxPoint x="1690" y="570" as="targetPoint" />
          </mxGeometry>
        </mxCell>
        <mxCell id="Ng3mfkcI_R2xY0YKPm50-33" value="IoT Device" style="shape=umlActor;verticalLabelPosition=bottom;verticalAlign=top;html=1;" parent="1" vertex="1">
          <mxGeometry x="870" y="380" width="30" height="60" as="geometry" />
        </mxCell>
        <mxCell id="Ng3mfkcI_R2xY0YKPm50-35" value="U12: Collect Real-time Vital Signs" style="ellipse;whiteSpace=wrap;html=1;" parent="1" vertex="1">
          <mxGeometry x="1000" y="515" width="140" height="70" as="geometry" />
        </mxCell>
        <mxCell id="Ng3mfkcI_R2xY0YKPm50-38" value="" style="endArrow=none;html=1;rounded=0;exitX=0;exitY=0.5;exitDx=0;exitDy=0;entryX=1;entryY=0.3333333333333333;entryDx=0;entryDy=0;entryPerimeter=0;" parent="1" source="Ng3mfkcI_R2xY0YKPm50-36" target="Ng3mfkcI_R2xY0YKPm50-33" edge="1">
          <mxGeometry width="50" height="50" relative="1" as="geometry">
            <mxPoint x="1015" y="655" as="sourcePoint" />
            <mxPoint x="740" y="730" as="targetPoint" />
          </mxGeometry>
        </mxCell>
        <mxCell id="lnLW_ViYdU20lxV3p-AQ-4" value="" style="endArrow=none;html=1;rounded=0;exitX=0;exitY=0.5;exitDx=0;exitDy=0;entryX=1;entryY=0.3333333333333333;entryDx=0;entryDy=0;entryPerimeter=0;" parent="1" source="Ng3mfkcI_R2xY0YKPm50-35" target="Ng3mfkcI_R2xY0YKPm50-33" edge="1">
          <mxGeometry width="50" height="50" relative="1" as="geometry">
            <mxPoint x="910" y="775" as="sourcePoint" />
            <mxPoint x="1070" y="480" as="targetPoint" />
          </mxGeometry>
        </mxCell>
        <mxCell id="Ng3mfkcI_R2xY0YKPm50-36" value="U13: Transmit Data to Cloud Server" style="ellipse;whiteSpace=wrap;html=1;" parent="1" vertex="1">
          <mxGeometry x="1040" y="620" width="140" height="70" as="geometry" />
        </mxCell>
        <mxCell id="lnLW_ViYdU20lxV3p-AQ-6" value="" style="endArrow=none;html=1;rounded=0;exitX=1;exitY=0.5;exitDx=0;exitDy=0;entryX=0;entryY=0.3333333333333333;entryDx=0;entryDy=0;entryPerimeter=0;" parent="1" source="Ng3mfkcI_R2xY0YKPm50-24" target="pXj6sC53VGuUhhz7tEEk-5" edge="1">
          <mxGeometry width="50" height="50" relative="1" as="geometry">
            <mxPoint x="1420" y="645" as="sourcePoint" />
            <mxPoint x="1650" y="210" as="targetPoint" />
          </mxGeometry>
        </mxCell>
        <mxCell id="lnLW_ViYdU20lxV3p-AQ-8" value="Healthcare Monitoring System" style="text;html=1;align=center;verticalAlign=middle;whiteSpace=wrap;rounded=0;" parent="1" vertex="1">
          <mxGeometry x="950" y="40" width="60" height="30" as="geometry" />
        </mxCell>
      </root>
    </mxGraphModel>
  </diagram>
</mxfile>
